<svg xmlns="http://www.w3.org/2000/svg" xmlns:xlink="http://www.w3.org/1999/xlink" version="1.2" viewBox="0 0 640 640" baseProfile="tiny-ps">
  <title>MemberPass</title>
  <g>
    <path d="M640,0v640H0V0H640z M258,222c-5.674-0.122-12.351-4.888-14.323-10.177   c-3.655-9.802-2.138-54.247-1.73-67.375c0.06-1.92,0.778-3.594,1.049-5.441c-44.057,0.32-106.271-4.634-131.168,40.322   c-8.739,15.779-13.158,41.205-13.819,59.182c-0.324,8.815-1.113,16.45,7.059,21.92c5.571,3.729,7.783,1.785,13.305,2.695   c68.623,11.305,68.753,101.445,1.85,113.599c-4.985,0.906-8.861-0.537-13.924,2.076c-8.873,4.579-8.61,13.066-8.342,21.741   c0.553,17.873,5.181,44.424,13.87,60.131C136.138,504.612,198.718,500.785,242,501v-66.5c0-0.335,1.242-5.971,1.452-6.548   c1.75-4.784,9.341-9.95,14.548-9.952c7.656-0.004,16,7.83,16,15.5V501c58.808-0.519,117.742,1.138,176.489-1.011   c66.021-5.936,88.55-35.533,91.558-100.442c2.271-48.983,2.277-110.115,0-159.095c-3.409-73.32-32.29-98.307-104.506-101.494   L274,139v67.5C274,213.941,265.563,222.162,258,222z" fill="#8BEE79"/>
    <path d="M258,222c7.563,0.162,16-8.059,16-15.5V139l163.541-0.041   c72.216,3.187,101.098,28.174,104.506,101.494c2.277,48.98,2.271,110.112,0,159.095c-3.009,64.909-25.537,94.506-91.558,100.442   C391.742,502.138,332.808,500.481,274,501v-67.5c0-7.67-8.344-15.504-16-15.5V222z M397.747,255.233   c-12.752,2.025-16.094,24.929-23.193,33.821c-12.124,5.498-41.607-0.375-42.209,18.602c-0.362,11.436,19.723,21.84,25.472,31.063   c1.04,10.924-8.134,29.527-3.02,38.983c9.972,18.441,32.982-4.506,45.721-7.784c12.323,3.374,32.104,23.224,43.468,10.568   c9.011-10.035-2.313-29.521-0.786-41.778c4.758-7.467,23.654-20.151,24.758-28.293c2.902-21.398-29.333-16.298-41.915-20.958   C418.073,278.821,415.364,252.435,397.747,255.233z" fill="#64A05D"/>
    <path d="M258,418c-5.207,0.003-12.797,5.168-14.548,9.952c-0.211,0.576-1.452,6.212-1.452,6.548V501   c-43.282-0.215-105.862,3.612-130.171-40.329c-8.69-15.707-13.317-42.257-13.87-60.131c-0.268-8.674-0.532-17.162,8.342-21.741   c5.064-2.613,8.939-1.17,13.924-2.076c66.903-12.154,66.773-102.294-1.85-113.599c-5.523-0.91-7.734,1.035-13.305-2.695   c-8.172-5.47-7.383-13.105-7.059-21.92c0.66-17.977,5.08-43.403,13.819-59.182c24.897-44.955,87.111-40.002,131.168-40.322   c-0.271,1.848-0.99,3.521-1.049,5.441c-0.408,13.128-1.925,57.573,1.73,67.375c1.972,5.289,8.65,10.055,14.323,10.177V418z" fill="#292D32"/>
    <path d="M397.747,255.233c17.617-2.798,20.326,23.588,28.296,34.224c12.582,4.66,44.817-0.44,41.915,20.958   c-1.104,8.142-20,20.826-24.758,28.293c-1.526,12.257,9.797,31.743,0.786,41.778c-11.364,12.656-31.145-7.194-43.468-10.568   c-12.739,3.278-35.749,26.225-45.721,7.784c-5.113-9.456,4.061-28.059,3.02-38.983c-5.749-9.224-25.835-19.627-25.472-31.063   c0.601-18.977,30.085-13.103,42.209-18.602C381.652,280.161,384.995,257.258,397.747,255.233z" fill="#292E32"/>
  </g>
</svg>